<svg xmlns="http://www.w3.org/2000/svg" width="213.5" height="151.9" style="background:#fff;">
  <text x="16.0" y="38.9" text-anchor="middle" font-size="12" fill="#777">A</text>
  <text x="16.0" y="54.3" text-anchor="middle" font-size="12" fill="#777">B</text>
  <text x="16.0" y="69.7" text-anchor="middle" font-size="12" fill="#777">C</text>
  <text x="16.0" y="85.1" text-anchor="middle" font-size="12" fill="#777">D</text>
  <text x="16.0" y="100.5" text-anchor="middle" font-size="12" fill="#777">E</text>
  <text x="16.0" y="115.9" text-anchor="middle" font-size="12" fill="#777">F</text>
  <text x="16.0" y="131.3" text-anchor="middle" font-size="12" fill="#777">G</text>
  <text x="16.0" y="146.7" text-anchor="middle" font-size="12" fill="#777">H</text>
  <text x="34.9" y="20.0" text-anchor="middle" font-size="12" fill="#777">1</text>
  <text x="50.3" y="20.0" text-anchor="middle" font-size="12" fill="#777">2</text>
  <text x="65.7" y="20.0" text-anchor="middle" font-size="12" fill="#777">3</text>
  <text x="81.1" y="20.0" text-anchor="middle" font-size="12" fill="#777">4</text>
  <text x="96.5" y="20.0" text-anchor="middle" font-size="12" fill="#777">5</text>
  <text x="111.9" y="20.0" text-anchor="middle" font-size="12" fill="#777">6</text>
  <text x="127.3" y="20.0" text-anchor="middle" font-size="12" fill="#777">7</text>
  <text x="142.7" y="20.0" text-anchor="middle" font-size="12" fill="#777">8</text>
  <text x="158.1" y="20.0" text-anchor="middle" font-size="12" fill="#777">9</text>
  <text x="173.5" y="20.0" text-anchor="middle" font-size="12" fill="#777">10</text>
  <text x="188.9" y="20.0" text-anchor="middle" font-size="12" fill="#777">11</text>
  <text x="204.3" y="20.0" text-anchor="middle" font-size="12" fill="#777">12</text>
  <circle cx="35.4" cy="35.4" r="7" fill="#beebde" stroke="#29be92" stroke-width="1.4"/>
  <circle cx="35.4" cy="50.8" r="7" fill="#ecddf4" stroke="#c28fdd" stroke-width="1.4"/>
  <circle cx="35.4" cy="66.2" r="7" fill="#ecddf4" stroke="#c28fdd" stroke-width="1.4"/>
  <circle cx="35.4" cy="81.6" r="7" fill="#ecddf4" stroke="#c28fdd" stroke-width="1.4"/>
  <circle cx="35.4" cy="97.0" r="7" fill="#ecddf4" stroke="#c28fdd" stroke-width="1.4"/>
  <circle cx="35.4" cy="112.4" r="7" fill="#ecddf4" stroke="#c28fdd" stroke-width="1.4"/>
  <circle cx="35.4" cy="127.8" r="7" fill="#ecddf4" stroke="#c28fdd" stroke-width="1.4"/>
  <circle cx="35.4" cy="143.2" r="7" fill="#ecddf4" stroke="#c28fdd" stroke-width="1.4"/>
  <circle cx="50.8" cy="35.4" r="7" fill="#ecddf4" stroke="#c28fdd" stroke-width="1.4"/>
  <circle cx="50.8" cy="50.8" r="7" fill="#ecddf4" stroke="#c28fdd" stroke-width="1.4"/>
  <circle cx="50.8" cy="66.2" r="7" fill="#ecddf4" stroke="#c28fdd" stroke-width="1.4"/>
  <circle cx="50.8" cy="81.6" r="7" fill="#ecddf4" stroke="#c28fdd" stroke-width="1.4"/>
  <circle cx="50.8" cy="97.0" r="7" fill="#ecddf4" stroke="#c28fdd" stroke-width="1.4"/>
  <circle cx="50.8" cy="112.4" r="7" fill="#ecddf4" stroke="#c28fdd" stroke-width="1.4"/>
  <circle cx="50.8" cy="127.8" r="7" fill="#ecddf4" stroke="#c28fdd" stroke-width="1.4"/>
  <circle cx="50.8" cy="143.2" r="7" fill="#fff" stroke="#333" stroke-width="1.4"/>
  <circle cx="66.2" cy="35.4" r="7" fill="#fff" stroke="#333" stroke-width="1.4"/>
  <circle cx="66.2" cy="50.8" r="7" fill="#fff" stroke="#333" stroke-width="1.4"/>
  <circle cx="66.2" cy="66.2" r="7" fill="#fff" stroke="#333" stroke-width="1.4"/>
  <circle cx="66.2" cy="81.6" r="7" fill="#fff" stroke="#333" stroke-width="1.4"/>
  <circle cx="66.2" cy="97.0" r="7" fill="#fff" stroke="#333" stroke-width="1.4"/>
  <circle cx="66.2" cy="112.4" r="7" fill="#fff" stroke="#333" stroke-width="1.4"/>
  <circle cx="66.2" cy="127.8" r="7" fill="#fff" stroke="#333" stroke-width="1.4"/>
  <circle cx="66.2" cy="143.2" r="7" fill="#fff" stroke="#333" stroke-width="1.4"/>
  <circle cx="81.6" cy="35.4" r="7" fill="#fff" stroke="#333" stroke-width="1.4"/>
  <circle cx="81.6" cy="50.8" r="7" fill="#fff" stroke="#333" stroke-width="1.4"/>
  <circle cx="81.6" cy="66.2" r="7" fill="#fff" stroke="#333" stroke-width="1.4"/>
  <circle cx="81.6" cy="81.6" r="7" fill="#fff" stroke="#333" stroke-width="1.4"/>
  <circle cx="81.6" cy="97.0" r="7" fill="#fff" stroke="#333" stroke-width="1.4"/>
  <circle cx="81.6" cy="112.4" r="7" fill="#fff" stroke="#333" stroke-width="1.4"/>
  <circle cx="81.6" cy="127.8" r="7" fill="#fff" stroke="#333" stroke-width="1.4"/>
  <circle cx="81.6" cy="143.2" r="7" fill="#fff" stroke="#333" stroke-width="1.4"/>
  <circle cx="97.0" cy="35.4" r="7" fill="#fff" stroke="#333" stroke-width="1.4"/>
  <circle cx="97.0" cy="50.8" r="7" fill="#fff" stroke="#333" stroke-width="1.4"/>
  <circle cx="97.0" cy="66.2" r="7" fill="#fff" stroke="#333" stroke-width="1.4"/>
  <circle cx="97.0" cy="81.6" r="7" fill="#fff" stroke="#333" stroke-width="1.4"/>
  <circle cx="97.0" cy="97.0" r="7" fill="#fff" stroke="#333" stroke-width="1.4"/>
  <circle cx="97.0" cy="112.4" r="7" fill="#fff" stroke="#333" stroke-width="1.4"/>
  <circle cx="97.0" cy="127.8" r="7" fill="#fff" stroke="#333" stroke-width="1.4"/>
  <circle cx="97.0" cy="143.2" r="7" fill="#fff" stroke="#333" stroke-width="1.4"/>
  <circle cx="112.4" cy="35.4" r="7" fill="#fff" stroke="#333" stroke-width="1.4"/>
  <circle cx="112.4" cy="50.8" r="7" fill="#fff" stroke="#333" stroke-width="1.4"/>
  <circle cx="112.4" cy="66.2" r="7" fill="#fff" stroke="#333" stroke-width="1.4"/>
  <circle cx="112.4" cy="81.6" r="7" fill="#fff" stroke="#333" stroke-width="1.4"/>
  <circle cx="112.4" cy="97.0" r="7" fill="#fff" stroke="#333" stroke-width="1.4"/>
  <circle cx="112.4" cy="112.4" r="7" fill="#fff" stroke="#333" stroke-width="1.4"/>
  <circle cx="112.4" cy="127.8" r="7" fill="#fff" stroke="#333" stroke-width="1.4"/>
  <circle cx="112.4" cy="143.2" r="7" fill="#fff" stroke="#333" stroke-width="1.4"/>
  <circle cx="127.8" cy="35.4" r="7" fill="#fff" stroke="#333" stroke-width="1.4"/>
  <circle cx="127.8" cy="50.8" r="7" fill="#fff" stroke="#333" stroke-width="1.4"/>
  <circle cx="127.8" cy="66.2" r="7" fill="#fff" stroke="#333" stroke-width="1.4"/>
  <circle cx="127.8" cy="81.6" r="7" fill="#fff" stroke="#333" stroke-width="1.4"/>
  <circle cx="127.8" cy="97.0" r="7" fill="#fff" stroke="#333" stroke-width="1.4"/>
  <circle cx="127.8" cy="112.4" r="7" fill="#fff" stroke="#333" stroke-width="1.4"/>
  <circle cx="127.8" cy="127.8" r="7" fill="#fff" stroke="#333" stroke-width="1.4"/>
  <circle cx="127.8" cy="143.2" r="7" fill="#fff" stroke="#333" stroke-width="1.4"/>
  <circle cx="143.2" cy="35.4" r="7" fill="#fff" stroke="#333" stroke-width="1.4"/>
  <circle cx="143.2" cy="50.8" r="7" fill="#fff" stroke="#333" stroke-width="1.4"/>
  <circle cx="143.2" cy="66.2" r="7" fill="#fff" stroke="#333" stroke-width="1.4"/>
  <circle cx="143.2" cy="81.6" r="7" fill="#fff" stroke="#333" stroke-width="1.4"/>
  <circle cx="143.2" cy="97.0" r="7" fill="#fff" stroke="#333" stroke-width="1.4"/>
  <circle cx="143.2" cy="112.4" r="7" fill="#fff" stroke="#333" stroke-width="1.4"/>
  <circle cx="143.2" cy="127.8" r="7" fill="#fff" stroke="#333" stroke-width="1.4"/>
  <circle cx="143.2" cy="143.2" r="7" fill="#fff" stroke="#333" stroke-width="1.4"/>
  <circle cx="158.6" cy="35.4" r="7" fill="#fff" stroke="#333" stroke-width="1.4"/>
  <circle cx="158.6" cy="50.8" r="7" fill="#fff" stroke="#333" stroke-width="1.4"/>
  <circle cx="158.6" cy="66.2" r="7" fill="#fff" stroke="#333" stroke-width="1.4"/>
  <circle cx="158.6" cy="81.6" r="7" fill="#fff" stroke="#333" stroke-width="1.4"/>
  <circle cx="158.6" cy="97.0" r="7" fill="#fff" stroke="#333" stroke-width="1.4"/>
  <circle cx="158.6" cy="112.4" r="7" fill="#fff" stroke="#333" stroke-width="1.4"/>
  <circle cx="158.6" cy="127.8" r="7" fill="#fff" stroke="#333" stroke-width="1.4"/>
  <circle cx="158.6" cy="143.2" r="7" fill="#fff" stroke="#333" stroke-width="1.4"/>
  <circle cx="174.0" cy="35.4" r="7" fill="#fff" stroke="#333" stroke-width="1.4"/>
  <circle cx="174.0" cy="50.8" r="7" fill="#fff" stroke="#333" stroke-width="1.4"/>
  <circle cx="174.0" cy="66.2" r="7" fill="#fff" stroke="#333" stroke-width="1.4"/>
  <circle cx="174.0" cy="81.6" r="7" fill="#fff" stroke="#333" stroke-width="1.4"/>
  <circle cx="174.0" cy="97.0" r="7" fill="#fff" stroke="#333" stroke-width="1.4"/>
  <circle cx="174.0" cy="112.4" r="7" fill="#fff" stroke="#333" stroke-width="1.4"/>
  <circle cx="174.0" cy="127.8" r="7" fill="#fff" stroke="#333" stroke-width="1.4"/>
  <circle cx="174.0" cy="143.2" r="7" fill="#fff" stroke="#333" stroke-width="1.4"/>
  <circle cx="189.4" cy="35.4" r="7" fill="#fff" stroke="#333" stroke-width="1.4"/>
  <circle cx="189.4" cy="50.8" r="7" fill="#fff" stroke="#333" stroke-width="1.4"/>
  <circle cx="189.4" cy="66.2" r="7" fill="#fff" stroke="#333" stroke-width="1.4"/>
  <circle cx="189.4" cy="81.6" r="7" fill="#fff" stroke="#333" stroke-width="1.4"/>
  <circle cx="189.4" cy="97.0" r="7" fill="#fff" stroke="#333" stroke-width="1.4"/>
  <circle cx="189.4" cy="112.4" r="7" fill="#fff" stroke="#333" stroke-width="1.4"/>
  <circle cx="189.4" cy="127.8" r="7" fill="#fff" stroke="#333" stroke-width="1.4"/>
  <circle cx="189.4" cy="143.2" r="7" fill="#fff" stroke="#333" stroke-width="1.4"/>
  <circle cx="204.8" cy="35.4" r="7" fill="#fff" stroke="#333" stroke-width="1.4"/>
  <circle cx="204.8" cy="50.8" r="7" fill="#fff" stroke="#333" stroke-width="1.4"/>
  <circle cx="204.8" cy="66.2" r="7" fill="#fff" stroke="#333" stroke-width="1.4"/>
  <circle cx="204.8" cy="81.6" r="7" fill="#fff" stroke="#333" stroke-width="1.4"/>
  <circle cx="204.8" cy="97.0" r="7" fill="#fff" stroke="#333" stroke-width="1.4"/>
  <circle cx="204.8" cy="112.4" r="7" fill="#fff" stroke="#333" stroke-width="1.4"/>
  <circle cx="204.8" cy="127.8" r="7" fill="#fff" stroke="#333" stroke-width="1.4"/>
  <circle cx="204.8" cy="143.2" r="7" fill="#fff" stroke="#333" stroke-width="1.4"/>
</svg>